<svg width="2454" height="702" viewBox="0 0 2454 702" fill="none" xmlns="http://www.w3.org/2000/svg">
<path d="M124.626 188.205H146.646C229.222 188.205 270.51 230.105 270.51 313.904V459.788H113.616V567.136C113.616 587.322 121.262 597.414 136.554 597.414C150.622 597.414 157.657 587.322 157.657 567.136V493.736H270.51V583.652C270.51 620.964 258.888 649.712 235.645 669.897C212.401 690.082 182.735 700.175 146.646 700.175H124.626C86.7026 700.175 56.4248 690.082 33.7929 669.897C11.7727 649.712 0.762623 620.964 0.762623 583.652V312.069C0.762623 275.98 10.8552 246.314 31.0404 223.071C51.8372 199.827 83.0325 188.205 124.626 188.205ZM113.616 312.069V371.707H161.327V312.069C161.327 290.049 153.375 279.039 137.471 279.039C127.685 279.039 121.262 281.791 118.204 287.296C115.145 292.19 113.616 300.447 113.616 312.069ZM416.616 197.381V258.854C422.121 243.562 431.296 229.188 444.141 215.731C456.986 201.662 473.807 194.628 494.604 194.628H500.109C537.421 194.628 556.077 214.813 556.077 255.184V434.098H446.894V321.244C446.894 312.069 445.67 305.952 443.224 302.894C441.389 299.224 437.719 297.389 432.214 297.389C422.427 297.389 417.534 305.341 417.534 321.244V691H300.093V197.381H416.616ZM698.857 197.381V258.854C704.362 243.562 713.537 229.188 726.383 215.731C739.228 201.662 756.049 194.628 776.845 194.628H782.351C819.663 194.628 838.319 214.813 838.319 255.184V434.098H729.135V321.244C729.135 312.069 727.912 305.952 725.465 302.894C723.63 299.224 719.96 297.389 714.455 297.389C704.668 297.389 699.775 305.341 699.775 321.244V691H582.334V197.381H698.857ZM861.823 560.714V326.749C861.823 282.709 873.138 248.761 895.77 224.906C918.402 200.439 949.903 188.205 990.274 188.205H1017.8C1058.78 188.205 1090.59 200.133 1113.22 223.988C1135.85 247.844 1147.17 281.485 1147.17 324.914V558.879C1147.17 599.861 1135.55 633.809 1112.3 660.722C1089.06 687.024 1057.56 700.175 1017.8 700.175H990.274C946.845 700.175 914.426 687.636 893.018 662.557C872.221 636.867 861.823 602.919 861.823 560.714ZM980.181 323.997V558.879C980.181 582.122 988.133 593.744 1004.04 593.744C1020.55 593.744 1028.81 582.122 1028.81 558.879V323.997C1028.81 301.365 1020.55 290.049 1004.04 290.049C988.133 290.049 980.181 301.365 980.181 323.997ZM1293.8 197.381V258.854C1299.31 243.562 1308.48 229.188 1321.33 215.731C1334.17 201.662 1351 194.628 1371.79 194.628H1377.3C1414.61 194.628 1433.27 214.813 1433.27 255.184V434.098H1324.08V321.244C1324.08 312.069 1322.86 305.952 1320.41 302.894C1318.58 299.224 1314.91 297.389 1309.4 297.389C1299.61 297.389 1294.72 305.341 1294.72 321.244V691H1177.28V197.381H1293.8ZM1590.73 422.17V256.101C1562.59 342.959 1543.93 398.315 1534.76 422.17H1590.73ZM1449.43 538.694V435.015C1509.98 269.252 1561.06 125.509 1602.65 3.78636H1710V422.17H1773.31V538.694H1710V691H1590.73V538.694H1449.43ZM2106.54 173.525V539.611C2106.54 589.768 2094 629.221 2068.92 657.97C2043.84 686.718 2008.67 701.093 1963.41 701.093H1935.88C1889.39 701.093 1854.53 687.024 1831.28 658.887C1808.04 630.139 1796.42 590.38 1796.42 539.611V174.443C1796.42 58.2252 1843.21 0.116322 1936.8 0.116322H1964.32C2059.13 0.116322 2106.54 57.9193 2106.54 173.525ZM1978.09 539.611V161.598C1978.09 146.918 1975.94 136.213 1971.66 129.485C1967.99 122.757 1960.96 119.392 1950.56 119.392C1932.21 119.392 1923.04 133.461 1923.04 161.598V539.611C1923.04 565.913 1931.9 579.064 1949.64 579.064C1968.6 579.064 1978.09 565.913 1978.09 539.611ZM2270.79 422.17V256.101C2242.66 342.959 2224 398.315 2214.82 422.17H2270.79ZM2129.5 538.694V435.015C2190.05 269.252 2241.13 125.509 2282.72 3.78636H2390.07V422.17H2453.38V538.694H2390.07V691H2270.79V538.694H2129.5Z" fill="#FF3131"/>
</svg>
