<?xml version="1.0" encoding="utf-8"?>
<!-- Generator: Adobe Illustrator 25.3.1, SVG Export Plug-In . SVG Version: 6.00 Build 0)  -->
<svg version="1.1" id="Layer_1" xmlns="http://www.w3.org/2000/svg" xmlns:xlink="http://www.w3.org/1999/xlink" x="0px" y="0px"
	 viewBox="0 0 346 60" style="enable-background:new 0 0 346 60;" xml:space="preserve">
<style type="text/css">
	.st0{clip-path:url(#SVGID_2_);}
	.st1{fill:#C52727;stroke:#C52727;stroke-width:0.586;stroke-miterlimit:10;}
	.st2{fill:#C52727;stroke:#C52727;stroke-width:1.2808;stroke-miterlimit:10;}
	.st3{fill:#C52727;stroke:#C52727;stroke-width:1.3643;stroke-miterlimit:10;}
	.st4{fill:#C52727;}
</style>
<g>
	<defs>
		<rect id="SVGID_1_" y="0" width="345.7" height="59.3"/>
	</defs>
	<clipPath id="SVGID_2_">
		<use xlink:href="#SVGID_1_"  style="overflow:visible;"/>
	</clipPath>
	<g class="st0">
		<path class="st1" d="M23.4,31.5H5.3v22.1H0.8V27.1h22.6V31.5z"/>
		<path class="st1" d="M63,53.7V27.1h26.3v17.7H67.4v8.9H63z M67.4,31.5v8.9H85v-8.9H67.4z"/>
		<path class="st1" d="M128.8,27.1h4.4v22.1h6.6V27.1h4.4v22.1h6.6V27.1h4.4v22.1h4.4v9.2h-4.4v-4.7h-26.4V27.1z"/>
		<path class="st1" d="M169.9,27.1v20l17.5-20h4.4v26.6h-4.4V33.9l-17.5,19.8h-4.4V27.1H169.9z"/>
		<path class="st1" d="M202.9,27.1v20l17.5-20h4.4v26.6h-4.4V33.9l-17.5,19.8h-4.4V27.1H202.9z M202.8,20.1h17.6v4.3h-17.6V20.1z"/>
		<path class="st1" d="M252.5,27.1h26.4v4.4h-11v22.1h-4.4V31.5h-11V27.1z"/>
		<path class="st1" d="M285.4,27.1h4.6l3.7,13.3H304l3.3-13.3h4.6L305,53.7h-12.3l-1.2-4.5h10l1.2-4.4h-12.3L285.4,27.1z"/>
		<path class="st1" d="M318.5,53.7V27.1h26.3v17.7h-21.9v8.9H318.5z M322.9,31.5v8.9h17.6v-8.9H322.9z"/>
		<path class="st1" d="M95.1,54V40.4h4.5V26.8h22.4V54h-4.5v-9H99.6v9H95.1z M104.1,40.4h13.3v-9h-13.3V40.4z"/>
		<path class="st2" d="M52.9,41.2c0.1,1.2-0.2,2.4-0.8,3.6c-0.6,1.1-1.4,2.2-2.5,3c-1.1,0.9-2.4,1.6-3.9,2c-1.5,0.5-3,0.7-4.6,0.7
			c-1.6,0-3.1-0.2-4.6-0.7c-1.5-0.5-2.8-1.2-3.9-2c-1.1-0.9-1.9-1.9-2.5-3c-0.6-1.1-0.8-2.3-0.8-3.6c0,0,5.2-0.1,11.7-0.1
			S52.9,41.2,52.9,41.2z"/>
		<path class="st3" d="M54.5,53.3l-8.8,1.6L42.8,43l8.8-1.6L54.5,53.3z"/>
		<path class="st4" d="M55,31.3c-0.3-2.5-1-5.1-1.9-7.5l-2.9-9.1c-1.5,2.4-1.2,6-1.1,9.2c0,3.2-0.7,7-2.9,7.8
			c1.7-6.4,0.8-13.2-2.3-19c-1.3-1.8-2.4-3.7-3.4-5.6c-0.5-1.1-0.8-2.3-0.9-3.5c0-1.2,0.2-2.4,0.6-3.5c-2.1,2.3-2.5,6.7-2.1,10.5
			s1.4,7.3,1.5,11.1c0.1,3.8-1.1,8-3.7,9.2c1-6.2,0-12.6-2.7-18.2c1.3,5-0.9,10.2-3,14.7c-2,4.5-4.1,10-2.5,14.7
			c0.4,1.3,1.1,2.6,1.9,3.7c1,1.9,2.6,3.4,4.4,4.4c0.3,0.2,0.7,0.4,1.1,0.6c1.9,0.8,3.9,1.2,5.9,1.2c2,0,4-0.4,5.9-1.2
			c1.4-0.5,2.7-1.3,3.8-2.3C54.6,45.1,55.5,37.5,55,31.3z M50.1,41.1h-7V34h7V41.1z"/>
	</g>
</g>
</svg>
